<?xml version="1.0" encoding="UTF-8"?>
<svg version="1.1" xmlns="http://www.w3.org/2000/svg" width="352" height="143">
<path d="M0 0 C116.16 0 232.32 0 352 0 C352 47.19 352 94.38 352 143 C235.84 143 119.68 143 0 143 C0 95.81 0 48.62 0 0 Z " fill="#FCFCFC" transform="translate(0,0)"/>
<path d="M0 0 C12.6225 -0.04125 25.245 -0.0825 38.25 -0.125 C42.21290039 -0.14320801 46.17580078 -0.16141602 50.25878906 -0.18017578 C55.15576172 -0.18920898 55.15576172 -0.18920898 57.45941162 -0.19088745 C59.04389576 -0.19392768 60.62837572 -0.20089633 62.21282959 -0.21115112 C85.59287649 -0.35470217 105.93367822 4.55146971 123.3984375 21.2109375 C136.47516709 35.23013408 143.40804077 51.92974696 143.25 71 C143.25773438 71.93328125 143.26546875 72.8665625 143.2734375 73.828125 C143.25669248 79.82284122 142.51596207 85.2102993 141 91 C140.82339844 91.84949219 140.64679688 92.69898437 140.46484375 93.57421875 C136.71971062 108.58249299 124.32414309 123.17748804 111.62109375 131.44140625 C102.64952439 136.77621426 94.29754791 140.141092 84 142 C83.10969086 142.17385727 82.21938171 142.34771454 81.30209351 142.52684021 C77.56849354 143.06183093 73.92005647 143.1326101 70.15869141 143.11352539 C69.38481771 143.11364593 68.61094402 143.11376646 67.81361961 143.11389065 C65.32623728 143.11314849 62.83893131 143.10555222 60.3515625 143.09765625 C58.80883826 143.09618467 57.26611351 143.09516529 55.72338867 143.09460449 C50.02391813 143.08937666 44.3244583 143.07541539 38.625 143.0625 C25.87875 143.041875 13.1325 143.02125 0 143 C0 95.81 0 48.62 0 0 Z " fill="#F1F1F1" transform="translate(0,0)"/>
<path d="M0 0 C2.4375 0.9375 2.4375 0.9375 5.6875 2.5 C13.09395493 5.41985242 23.88686645 5.02722055 31.4375 2.9375 C31.56223576 8.69914081 31.65236943 14.4599748 31.7121582 20.22265625 C31.73711363 22.17787387 31.7710907 24.13300004 31.81469727 26.08789062 C32.27188903 47.12946906 32.27188903 47.12946906 26.4375 56.9375 C26.0561792 57.59057129 25.6748584 58.24364258 25.28198242 58.91650391 C19.83335507 67.4497398 12.78375829 73.38603139 4.4375 78.9375 C3.4475 79.5975 2.4575 80.2575 1.4375 80.9375 C-7.2968233 80.48221291 -14.95874776 73.24653147 -20.796875 67.125 C-23.20430724 64.14234058 -25.33737131 61.01699956 -27.4375 57.8125 C-27.83146973 57.21421387 -28.22543945 56.61592773 -28.63134766 55.99951172 C-32.76823258 49.45505069 -32.70354577 43.76802107 -32.66015625 36.26171875 C-32.6587413 35.3365596 -32.65732635 34.41140045 -32.65586853 33.45820618 C-32.65028715 30.51377073 -32.63773805 27.56941233 -32.625 24.625 C-32.61998259 22.62435006 -32.61542011 20.62369892 -32.61132812 18.62304688 C-32.60032381 13.72783506 -32.58307198 8.83268058 -32.5625 3.9375 C-31.973479 3.95844727 -31.38445801 3.97939453 -30.77758789 4.00097656 C-28.06023839 4.0850869 -25.34316391 4.13645467 -22.625 4.1875 C-21.69880859 4.22101562 -20.77261719 4.25453125 -19.81835938 4.2890625 C-13.88843392 4.37228952 -9.66447901 3.55933724 -4.39257812 0.79760742 C-2.5625 -0.0625 -2.5625 -0.0625 0 0 Z " fill="#F4F4F4" transform="translate(72.5625,36.0625)"/>
<path d="M0 0 C9.5845284 7.987107 16.75173346 19.3566162 18.27832031 31.88085938 C19.41991442 45.49070201 16.34637735 57.64923554 7.984375 68.671875 C-1.47642992 79.59549514 -12.53287772 85.84841957 -27.0078125 87.203125 C-41.13589877 87.62403949 -54.42532945 82.54411577 -64.7734375 72.91796875 C-74.09313032 63.05878575 -78.13642639 52.04345832 -78.1484375 38.54296875 C-78.16068359 37.82625 -78.17292969 37.10953125 -78.18554688 36.37109375 C-78.22002722 23.63635264 -73.0762964 13.40038266 -64.42578125 4.24609375 C-46.28409006 -12.88932297 -20.27823574 -14.25897052 0 0 Z M-35.95703125 4.90234375 C-41.3638172 7.38716453 -46.15935332 7.38016943 -52.0234375 7.16796875 C-52.98443359 7.14992188 -53.94542969 7.131875 -54.93554688 7.11328125 C-57.27842977 7.06665671 -59.6191204 7.00125044 -61.9609375 6.91796875 C-62.01049626 12.78953836 -62.04673237 18.6609853 -62.07080078 24.53271484 C-62.08083802 26.52883018 -62.0944707 28.52493089 -62.11181641 30.52099609 C-62.13616485 33.39554462 -62.14744355 36.26989816 -62.15625 39.14453125 C-62.16657257 40.03226227 -62.17689514 40.91999329 -62.18753052 41.83462524 C-62.18977575 54.32575926 -55.79828906 63.60085551 -47.4609375 72.515625 C-38.95316209 80.80121446 -38.95316209 80.80121446 -27.9609375 83.91796875 C-25.38948907 82.6036059 -23.41154226 81.39035939 -21.1484375 79.66796875 C-20.23094727 78.98613525 -20.23094727 78.98613525 -19.29492188 78.29052734 C-9.10221266 70.44192644 -2.03152381 60.12972768 2.0390625 47.91796875 C2.12495553 46.52141416 2.15678965 45.12111098 2.15258789 43.72192383 C2.15251236 42.88127884 2.15243683 42.04063385 2.15235901 41.17451477 C2.14719772 40.2712999 2.14203644 39.36808502 2.13671875 38.4375 C2.1353038 37.50951096 2.13388885 36.58152191 2.13243103 35.62541199 C2.12683187 32.66039817 2.11427954 29.69545976 2.1015625 26.73046875 C2.09654739 24.72070422 2.0919845 22.7109385 2.08789062 20.70117188 C2.07686271 15.77340843 2.05959867 10.84570138 2.0390625 5.91796875 C1.16531982 6.15809692 1.16531982 6.15809692 0.27392578 6.40307617 C-8.59901087 8.44732168 -18.95378859 7.86929085 -27.078125 3.79296875 C-30.64718659 2.13431772 -32.71754508 3.19637081 -35.95703125 4.90234375 Z " fill="#F8F8F8" transform="translate(101.9609375,33.08203125)"/>
<path d="M0 0 C5.445 1.485 5.445 1.485 11 3 C14.31422663 3.19373889 17.39694968 3.29543226 20.6875 3.1875 C21.49638672 3.17396484 22.30527344 3.16042969 23.13867188 3.14648438 C25.09275011 3.1117966 27.04647548 3.05802548 29 3 C29.09968046 8.22862331 29.17184747 13.45668044 29.21972656 18.68603516 C29.23970839 20.46087289 29.26690355 22.23564594 29.30175781 24.01025391 C29.66578359 43.03595424 29.66578359 43.03595424 25 51 C24.42378906 51.98613281 23.84757812 52.97226563 23.25390625 53.98828125 C20.09126794 58.33416992 17.00752958 62.38344892 13 66 C12.05447266 66.88171875 12.05447266 66.88171875 11.08984375 67.78125 C7.31637926 71.22321387 4.89334587 73.04266165 0 75 C0 50.25 0 25.5 0 0 Z " fill="#F7F7F7" transform="translate(73,39)"/>
<path d="M0 0 C21.12 0 42.24 0 64 0 C60.88429612 1.55785194 59.17603537 2.28177296 55.9375 2.875 C37.82284214 6.73550085 22.47996962 17.21481504 12.22265625 32.6796875 C6.16437192 42.54201082 2.91111241 52.63391042 1 64 C0.67 64 0.34 64 0 64 C0 42.88 0 21.76 0 0 Z " fill="#FBFBFB" transform="translate(0,0)"/>
<path d="M0 0 C0.33 0 0.66 0 1 0 C1.08636719 0.64324219 1.17273438 1.28648438 1.26171875 1.94921875 C3.86700309 18.70430426 11.23731234 31.99352607 23 44 C23.59167969 44.62777344 24.18335937 45.25554687 24.79296875 45.90234375 C34.46734232 55.32044252 49.68547668 61.58356135 63 63 C63 63.33 63 63.66 63 64 C42.21 64 21.42 64 0 64 C0 42.88 0 21.76 0 0 Z " fill="#FCFCFC" transform="translate(0,79)"/>
<path d="M0 0 C13.0333234 11.18436792 22.51939948 26.65861349 25.12109375 43.78515625 C25.38218628 47.45747211 25.4015932 51.10488879 25.37109375 54.78515625 C25.37882813 55.7184375 25.3865625 56.65171875 25.39453125 57.61328125 C25.37778623 63.60799747 24.63705582 68.99545555 23.12109375 74.78515625 C22.94449219 75.63464844 22.76789063 76.48414062 22.5859375 77.359375 C18.84080437 92.36764924 6.44523684 106.96264429 -6.2578125 115.2265625 C-15.22938186 120.56137051 -23.58135834 123.92624825 -33.87890625 125.78515625 C-34.85085937 125.96949219 -35.8228125 126.15382812 -36.82421875 126.34375 C-55.99874404 129.11449342 -74.3769047 123.88693528 -89.81640625 112.34765625 C-91.19143247 111.18437361 -92.54585591 109.99631288 -93.87890625 108.78515625 C-94.62398437 108.13160156 -95.3690625 107.47804688 -96.13671875 106.8046875 C-109.43328362 94.4321212 -116.80064332 77.31682278 -118.1328125 59.36328125 C-118.75820082 40.23850292 -112.72679707 22.14456363 -99.87890625 7.78515625 C-99.2240625 7.0375 -98.56921875 6.28984375 -97.89453125 5.51953125 C-71.87195702 -22.40250095 -29.3201828 -22.55704701 0 0 Z M-74.87890625 -8.21484375 C-75.9153125 -7.71855469 -76.95171875 -7.22226563 -78.01953125 -6.7109375 C-91.9634611 0.70794825 -102.00433578 11.87566023 -109.12890625 25.78515625 C-109.47083008 26.44990967 -109.81275391 27.11466309 -110.16503906 27.79956055 C-114.66485097 36.92143747 -115.21900024 45.09386868 -115.19140625 55.16015625 C-115.20751953 56.32804687 -115.22363281 57.4959375 -115.24023438 58.69921875 C-115.24947895 75.19154928 -108.53714752 90.86382207 -97.09008789 102.75366211 C-83.8108221 115.9597765 -68.49336276 124.2474397 -49.41796875 124.33203125 C-48.25007813 124.3165625 -47.0821875 124.30109375 -45.87890625 124.28515625 C-44.12707031 124.30835938 -44.12707031 124.30835938 -42.33984375 124.33203125 C-23.6367849 124.24909086 -8.20121971 115.71783544 5.05078125 102.921875 C18.44269043 88.54789248 23.65366999 70.43341772 23.32421875 51.19140625 C22.68065346 33.0460043 14.29921695 16.16602644 1.12109375 3.78515625 C-19.23450774 -13.68262634 -50.15069006 -20.30214345 -74.87890625 -8.21484375 Z " fill="#1A1A1A" transform="translate(117.87890625,16.21484375)"/>
<path d="M0 0 C8.98601407 7.22639535 15.9947398 18.97518986 17.28320312 30.54248047 C17.40044972 33.20189149 17.40986798 35.838411 17.375 38.5 C17.38660156 39.38558594 17.39820312 40.27117187 17.41015625 41.18359375 C17.3530199 54.15354486 11.50742318 65.65270063 2.5625 74.9375 C-9.00719035 85.80004459 -22.35418785 89.74643793 -37.99609375 89.3125 C-50.80789844 88.58161502 -63.36062125 81.28733216 -72 72 C-80.53527846 61.40202924 -84.98978607 47.96343132 -84.41796875 34.37890625 C-82.72820912 20.71869986 -76.27873117 7.67298494 -65.4375 -1 C-44.64697596 -15.93459194 -20.38873553 -16.03710989 0 0 Z M-72 9 C-78.55020574 18.5408342 -81.17726321 26.86885345 -81.1875 38.375 C-81.19974609 39.09171875 -81.21199219 39.8084375 -81.22460938 40.546875 C-81.25808304 52.90981453 -76.40233586 63.80381001 -68 72.8125 C-57.41044056 82.79611735 -44.59715356 87.57279628 -30.10546875 87.2421875 C-17.13361706 86.23054624 -5.61070232 80.73843549 3.2578125 71.15234375 C12.59217265 59.62043245 16.45783757 46.77560486 15.26611328 32.08984375 C13.66981367 19.55376607 6.32221444 7.49869355 -3.51953125 -0.36328125 C-25.89490483 -15.12750413 -54.58481994 -12.26404918 -72 9 Z " fill="#1D1D1D" transform="translate(105,33)"/>
<path d="M0 0 C2.4375 0.9375 2.4375 0.9375 5.6875 2.5 C13.09395493 5.41985242 23.88686645 5.02722055 31.4375 2.9375 C31.56223576 8.69914081 31.65236943 14.4599748 31.7121582 20.22265625 C31.73711363 22.17787387 31.7710907 24.13300004 31.81469727 26.08789062 C32.27188903 47.12946906 32.27188903 47.12946906 26.4375 56.9375 C26.0561792 57.59057129 25.6748584 58.24364258 25.28198242 58.91650391 C19.83335507 67.4497398 12.78375829 73.38603139 4.4375 78.9375 C3.4475 79.5975 2.4575 80.2575 1.4375 80.9375 C-7.2968233 80.48221291 -14.95874776 73.24653147 -20.796875 67.125 C-23.20430724 64.14234058 -25.33737131 61.01699956 -27.4375 57.8125 C-27.83146973 57.21421387 -28.22543945 56.61592773 -28.63134766 55.99951172 C-32.76823258 49.45505069 -32.70354577 43.76802107 -32.66015625 36.26171875 C-32.6587413 35.3365596 -32.65732635 34.41140045 -32.65586853 33.45820618 C-32.65028715 30.51377073 -32.63773805 27.56941233 -32.625 24.625 C-32.61998259 22.62435006 -32.61542011 20.62369892 -32.61132812 18.62304688 C-32.60032381 13.72783506 -32.58307198 8.83268058 -32.5625 3.9375 C-31.973479 3.95844727 -31.38445801 3.97939453 -30.77758789 4.00097656 C-28.06023839 4.0850869 -25.34316391 4.13645467 -22.625 4.1875 C-21.69880859 4.22101562 -20.77261719 4.25453125 -19.81835938 4.2890625 C-13.88843392 4.37228952 -9.66447901 3.55933724 -4.39257812 0.79760742 C-2.5625 -0.0625 -2.5625 -0.0625 0 0 Z M-5.8125 3.875 C-11.43503267 6.04734217 -17.00200012 6.06976627 -22.9375 6 C-23.67355469 5.99548828 -24.40960938 5.99097656 -25.16796875 5.98632812 C-26.96618158 5.97465142 -28.76435197 5.95672011 -30.5625 5.9375 C-30.66214824 11.30854009 -30.73433292 16.67902986 -30.78222656 22.05078125 C-30.80221364 23.87411892 -30.82941286 25.69739356 -30.86425781 27.52050781 C-31.3560688 41.76090655 -31.3560688 41.76090655 -26.5625 54.9375 C-25.97210938 55.94941406 -25.38171875 56.96132812 -24.7734375 58.00390625 C-18.9379605 65.93767179 -12.33564662 73.21916904 -3.5625 77.9375 C-2.9025 77.9375 -2.2425 77.9375 -1.5625 77.9375 C-1.5625 53.1875 -1.5625 28.4375 -1.5625 2.9375 C-3.66105769 2.80929487 -3.66105769 2.80929487 -5.8125 3.875 Z M0.4375 2.9375 C0.4375 27.6875 0.4375 52.4375 0.4375 77.9375 C13.75423471 72.61080612 22.54761959 60.70312063 28.4375 47.9375 C29.67171246 43.72409851 29.56288909 39.58970298 29.53515625 35.234375 C29.5337413 34.39658508 29.53232635 33.55879517 29.53086853 32.69561768 C29.52528197 30.02620843 29.51273194 27.3568838 29.5 24.6875 C29.49498326 22.87500121 29.49042066 21.06250111 29.48632812 19.25 C29.47531694 14.81246752 29.45806155 10.37499809 29.4375 5.9375 C28.26574219 5.97230469 27.09398437 6.00710937 25.88671875 6.04296875 C24.29949372 6.07114434 22.7122529 6.09844039 21.125 6.125 C20.35865234 6.15013672 19.59230469 6.17527344 18.80273438 6.20117188 C11.82448462 6.28803805 7.67869006 4.91237002 0.4375 2.9375 Z " fill="#060606" transform="translate(72.5625,36.0625)"/>
<path d="M0 0 C13.48539786 -0.40864842 13.48539786 -0.40864842 18 3 C19.50934217 6.01868434 19.17510672 8.67297229 19 12 C18.01 13.485 18.01 13.485 17 15 C16.34 15 15.68 15 15 15 C15.3609375 15.48210937 15.721875 15.96421875 16.09375 16.4609375 C16.5578125 17.09257813 17.021875 17.72421875 17.5 18.375 C17.9640625 19.00148438 18.428125 19.62796875 18.90625 20.2734375 C20 22 20 22 20 24 C18.54257537 24.08096803 17.08387193 24.13917774 15.625 24.1875 C14.81289063 24.22230469 14.00078125 24.25710937 13.1640625 24.29296875 C12.44992188 24.19628906 11.73578125 24.09960938 11 24 C10.34 23.01 9.68 22.02 9 21 C8.67 21.99 8.34 22.98 8 24 C5.36 24 2.72 24 0 24 C0 16.08 0 8.16 0 0 Z " fill="#141414" transform="translate(47,58)"/>
<path d="M0 0 C7.40645493 2.91985242 18.19936645 2.52722055 25.75 0.4375 C25.87473576 6.19914081 25.96486943 11.9599748 26.0246582 17.72265625 C26.04961363 19.67787387 26.0835907 21.63300004 26.12719727 23.58789062 C26.44754422 38.33138819 25.29770562 49.4385694 15.875 61.375 C15.44590332 61.91858154 15.01680664 62.46216309 14.57470703 63.0222168 C11.35296061 66.98601037 8.13683581 69.86261811 3.75 72.4375 C5.24407115 67.7062747 5.24407115 67.7062747 7.75 66.375 C8.41 66.065625 9.07 65.75625 9.75 65.4375 C10.43415131 64.11305324 11.09745425 62.77780081 11.75 61.4375 C13.42799778 59.08169031 15.15695227 56.77013158 16.8984375 54.4609375 C23.40872844 43.83020926 23.40322984 33.95828003 23.5 21.8125 C23.52820248 20.02731532 23.55813578 18.24215711 23.58984375 16.45703125 C23.66319995 12.11723547 23.71308335 7.77775246 23.75 3.4375 C22.76 3.7675 21.77 4.0975 20.75 4.4375 C18.39902424 4.58568271 16.04296563 4.65874559 13.6875 4.6875 C12.43839844 4.71328125 11.18929687 4.7390625 9.90234375 4.765625 C5.75 4.4375 5.75 4.4375 -4.25 1.4375 C-4.58 25.8575 -4.91 50.2775 -5.25 75.4375 C-5.58 75.4375 -5.91 75.4375 -6.25 75.4375 C-6.58 51.0175 -6.91 26.5975 -7.25 1.4375 C-10.22 2.0975 -13.19 2.7575 -16.25 3.4375 C-15.25 0.4375 -15.25 0.4375 -12 -1.3125 C-6.84586339 -3.03054554 -4.81592748 -2.31534975 0 0 Z " fill="#212121" transform="translate(78.25,38.5625)"/>
<path d="M0 0 C0.33 0 0.66 0 1 0 C0.98428955 0.9472998 0.9685791 1.89459961 0.95239258 2.87060547 C0.90085499 6.43039573 0.86345325 9.98978183 0.83520508 13.54980469 C0.82024256 15.08209543 0.79986503 16.61434429 0.77368164 18.14648438 C0.62916546 26.82878989 0.62069259 34.84032377 4 43 C4.27046143 43.68143066 4.54092285 44.36286133 4.81958008 45.06494141 C11.64133419 61.28825509 23.51286574 74.81278843 39.8359375 82.12890625 C40.90714844 82.56009766 40.90714844 82.56009766 42 83 C42.83789062 83.35964844 43.67578125 83.71929687 44.5390625 84.08984375 C55.61703789 88.19658661 67.321236 87.83436403 79 88 C79 88.33 79 88.66 79 89 C74.71 89 70.42 89 66 89 C66 89.66 66 90.32 66 91 C45.70140127 90.62909537 30.02012769 81.95969611 16 68 C15.3296875 67.36449219 14.659375 66.72898437 13.96875 66.07421875 C1.04268442 52.82500153 -3.30590137 33.68341733 -3.234375 15.85546875 C-2.89923402 10.34239962 -1.6444154 5.25625637 0 0 Z " fill="#252525" transform="translate(3,52)"/>
<path d="M0 0 C2.64 0 5.28 0 8 0 C9.32 2.31 10.64 4.62 12 7 C12.99 4.69 13.98 2.38 15 0 C17.64 0 20.28 0 23 0 C20.49415892 8.40193774 16.78974143 16.11941439 13 24 C12.01 24 11.02 24 10 24 C5.41552028 16.69879156 1.86792891 8.43647013 0 0 Z " fill="#1D1D1D" transform="translate(76,58)"/>
<path d="M0 0 C-0.33 0.99 -0.66 1.98 -1 3 C-2.03898437 3.03738281 -3.07796875 3.07476563 -4.1484375 3.11328125 C-19.69776924 3.78942036 -32.34983824 7.2356751 -43.4375 19.04296875 C-50.26358121 27.59263547 -53.1986647 35.56852908 -54.125 46.3125 C-54.25455078 47.70952148 -54.25455078 47.70952148 -54.38671875 49.13476562 C-54.59790805 51.42264973 -54.80211266 53.71093346 -55 56 C-56.485 56.495 -56.485 56.495 -58 57 C-58.84317436 41.3778529 -55.14405722 29.15362001 -45.625 16.75 C-32.73182931 3.2428688 -17.91143602 -0.41979928 0 0 Z " fill="#252525" transform="translate(79,21)"/>
<path d="M0 0 C10.9 0 10.9 0 14 3 C14.4375 6.0625 14.4375 6.0625 14 9 C13.34 9.66 12.68 10.32 12 11 C12.27034634 13.43717258 12.27034634 13.43717258 13 16 C13.185625 16.763125 13.37125 17.52625 13.5625 18.3125 C13.706875 18.869375 13.85125 19.42625 14 20 C12.1875 19.875 12.1875 19.875 10 19 C9 17 8 15 7 13 C4.92309422 12.03955898 4.92309422 12.03955898 3 12 C3 14.64 3 17.28 3 20 C2.01 20 1.02 20 0 20 C0 13.4 0 6.8 0 0 Z " fill="#0E0E0E" transform="translate(163,44)"/>
<path d="M0 0 C0.99 0 1.98 0 3 0 C3 6.93 3 13.86 3 21 C-7 21 -7 21 -9 20 C-10.25532682 16.23401954 -10.43392093 12.93803712 -10 9 C-8.9375 6.9375 -8.9375 6.9375 -7 6 C-3.3125 6.3125 -3.3125 6.3125 0 7 C0 4.69 0 2.38 0 0 Z " fill="#111111" transform="translate(231,43)"/>
<path d="M0 0 C0.99 0 1.98 0 3 0 C3 0.99 3 1.98 3 3 C6.67788118 4.22596039 7.78449613 3.84310077 12 3 C12 7.95 12 12.9 12 18 C10.68 18 9.36 18 8 18 C7.67 17.34 7.34 16.68 7 16 C6.67 16.66 6.34 17.32 6 18 C4.33388095 18.042721 2.66617115 18.04063832 1 18 C0 17 0 17 -0.09765625 14.27734375 C-0.08605469 13.17519531 -0.07445312 12.07304688 -0.0625 10.9375 C-0.05347656 9.83277344 -0.04445312 8.72804688 -0.03515625 7.58984375 C-0.02355469 6.73519531 -0.01195312 5.88054687 0 5 C-0.66 5 -1.32 5 -2 5 C-2 4.34 -2 3.68 -2 3 C-1.34 3 -0.68 3 0 3 C0 2.01 0 1.02 0 0 Z " fill="#DFDFDF" transform="translate(202,82)"/>
<path d="M0 0 C2.03667615 1.54506466 2.86073078 2.72146156 4 5 C4.27756584 8.19200721 4.24964598 10.4070908 3 13.375 C0.2897489 15.57707902 -1.70878117 15.51582761 -5.125 15.30859375 C-7 15 -7 15 -9 14 C-10.63147635 10.7370473 -10.6293407 7.51440821 -10 4 C-7.30226606 -0.15035991 -4.80944863 -0.71630086 0 0 Z " fill="#191919" transform="translate(310,49)"/>
<path d="M0 0 C2.17890019 1.59652134 2.90414847 2.48127407 3.3984375 5.15625 C3.39070313 5.9296875 3.38296875 6.703125 3.375 7.5 C3.38273437 8.2734375 3.39046875 9.046875 3.3984375 9.84375 C2.90430083 12.51790141 2.1706315 13.39583815 0 15 C-3.4375 15.5 -3.4375 15.5 -7 15 C-9.5 12.9375 -9.5 12.9375 -11 10 C-10.93977486 6.50694211 -10.63658168 4.09633511 -8.875 1.0625 C-5.86086748 -0.64550843 -3.37911601 -0.36204814 0 0 Z " fill="#0B0B0B" transform="translate(270,85)"/>
<path d="M0 0 C0.66 0 1.32 0 2 0 C2.14695312 0.65484375 2.29390625 1.3096875 2.4453125 1.984375 C5.62870733 14.93749881 11.08704677 26.63873115 22.67626953 34.07568359 C29.42431734 38.01251149 36.26204005 40.79928208 44 42 C44 42.66 44 43.32 44 44 C48.29 44 52.58 44 57 44 C57 44.33 57 44.66 57 45 C40.477284 45.75484489 27.9548023 42.35661202 14.8125 31.8125 C7.05077132 24.66230146 2.35469315 15.20854545 0 5 C-0.09765625 2.1484375 -0.09765625 2.1484375 0 0 Z " fill="#1E1E1E" transform="translate(22,77)"/>
<path d="M0 0 C10 0 10 0 13.125 1.125 C15 3 15 3 15.5 6 C15 9 15 9 13.625 10.875 C12 12 12 12 10 12 C10.66 12.94875 11.32 13.8975 12 14.875 C14 18 14 18 14 20 C12.68 20 11.36 20 10 20 C7.03256687 16.37313728 6 14.7546322 6 10 C7.65 10 9.3 10 11 10 C11 7.69 11 5.38 11 3 C8.36 3 5.72 3 3 3 C3 8.61 3 14.22 3 20 C2.01 20 1.02 20 0 20 C0 13.4 0 6.8 0 0 Z " fill="#E6E6E6" transform="translate(49,60)"/>
<path d="M0 0 C1.6796875 1.12890625 1.6796875 1.12890625 3 3 C3.29296875 5.91796875 3.29296875 5.91796875 3.1875 9.1875 C3.16042969 10.27417969 3.13335937 11.36085938 3.10546875 12.48046875 C3.07066406 13.31191406 3.03585937 14.14335938 3 15 C1.20866022 15.05391993 -0.58313899 15.09275571 -2.375 15.125 C-3.37273437 15.14820312 -4.37046875 15.17140625 -5.3984375 15.1953125 C-8 15 -8 15 -10 13 C-9.67028521 9.70285207 -9.3773161 8.3773161 -7 6 C-3.875 5.875 -3.875 5.875 -1 6 C-1 5.01 -1 4.02 -1 3 C-3.64 3.33 -6.28 3.66 -9 4 C-8.67 3.01 -8.34 2.02 -8 1 C-5.20129973 -0.39935013 -3.09501208 -0.25265405 0 0 Z " fill="#101010" transform="translate(342,49)"/>
<path d="M0 0 C-0.94359375 0.52207031 -1.8871875 1.04414063 -2.859375 1.58203125 C-20.46984696 11.57436056 -32.50086352 23.79919083 -40 43 C-40.38104168 44.65641061 -40.7331621 46.32140344 -41 48 C-42.1171875 46.375 -42.1171875 46.375 -43 44 C-39.65370511 28.75106124 -28.32688898 14.11154747 -15.4765625 5.5703125 C-4.53210333 -1.359631 -4.53210333 -1.359631 0 0 Z " fill="#171717" transform="translate(46,7)"/>
<path d="M0 0 C0.66 0 1.32 0 2 0 C-3.85463872 12.6617067 -17.48030683 20.99212273 -30 26 C-34.29679366 27.24997634 -38.59790655 28.20533638 -43 29 C-44.01578125 29.18820313 -45.0315625 29.37640625 -46.078125 29.5703125 C-48.7354208 29.96109129 -51.19471032 30.10311045 -53.875 30.0625 C-54.65617187 30.05347656 -55.43734375 30.04445312 -56.2421875 30.03515625 C-56.82226562 30.02355469 -57.40234375 30.01195312 -58 30 C-58 29.34 -58 28.68 -58 28 C-57.25878906 27.98582031 -56.51757812 27.97164062 -55.75390625 27.95703125 C-36.60832454 27.08997308 -20.20815022 19.94407992 -6 7 C-3.9220107 4.72369637 -1.97378625 2.3685435 0 0 Z " fill="#141414" transform="translate(127,113)"/>
<path d="M0 0 C-0.33 0.99 -0.66 1.98 -1 3 C-2.5625 2.28385417 -4.125 1.56770833 -5.6875 0.8515625 C-13.60186222 -2.06284791 -20.87190254 -2.33564392 -29.25 -2.3125 C-30.97669922 -2.33666992 -30.97669922 -2.33666992 -32.73828125 -2.36132812 C-39.79991809 -2.36530875 -45.90724149 -1.53876637 -52.66308594 0.55004883 C-53.8198584 0.77277466 -53.8198584 0.77277466 -55 1 C-55.66 0.34 -56.32 -0.32 -57 -1 C-37.91763706 -8.06754183 -18.83946618 -7.63962605 0 0 Z " fill="#2A2A2A" transform="translate(101,6)"/>
<path d="M0 0 C3.375 -0.125 3.375 -0.125 7 0 C9 2 9 2 9.1953125 5.0390625 C9.17210937 6.22242188 9.14890625 7.40578125 9.125 8.625 C9.10695313 9.81351563 9.08890625 11.00203125 9.0703125 12.2265625 C9.04710937 13.14179687 9.02390625 14.05703125 9 15 C7.37536158 15.05395478 5.75021459 15.09277195 4.125 15.125 C3.22007812 15.14820312 2.31515625 15.17140625 1.3828125 15.1953125 C-1 15 -1 15 -3 13 C-2.67028521 9.70285207 -2.3773161 8.3773161 0 6 C3.125 5.875 3.125 5.875 6 6 C6 5.01 6 4.02 6 3 C3.36 3.33 0.72 3.66 -2 4 C-1.34 2.68 -0.68 1.36 0 0 Z " fill="#030303" transform="translate(271,49)"/>
<path d="M0 0 C8.3984375 -0.1953125 8.3984375 -0.1953125 11 0 C13 2 13 2 13.1953125 5.0390625 C13.17210937 6.22242187 13.14890625 7.40578125 13.125 8.625 C13.10695313 9.81351563 13.08890625 11.00203125 13.0703125 12.2265625 C13.04710937 13.14179687 13.02390625 14.05703125 13 15 C11.68 15 10.36 15 9 15 C9 11.04 9 7.08 9 3 C7.35 3 5.7 3 4 3 C4 6.96 4 10.92 4 15 C2.68 15 1.36 15 0 15 C0 10.05 0 5.1 0 0 Z " fill="#303030" transform="translate(276,85)"/>
<path d="M0 0 C7.59 0 15.18 0 23 0 C22 2 22 2 20.3828125 2.6171875 C17.19369409 3.12953767 14.10399201 3.13174111 10.875 3.125 C9.63492188 3.12757812 8.39484375 3.13015625 7.1171875 3.1328125 C4 3 4 3 2 2 C2.11848296 7.4627881 2.24274719 12.92540299 2.37231445 18.38793945 C2.41556221 20.24532519 2.45724428 22.10274808 2.49731445 23.96020508 C2.5552637 26.63374008 2.61888652 29.30708981 2.68359375 31.98046875 C2.70866249 33.2213752 2.70866249 33.2213752 2.73423767 34.48735046 C2.8352296 38.43903895 3.04295881 42.14118269 4 46 C3.01 45.67 2.02 45.34 1 45 C0.08138216 42.24414648 -0.12204322 40.6403931 -0.11352539 37.80395508 C-0.11344986 36.96331009 -0.11337433 36.1226651 -0.11329651 35.25654602 C-0.10813522 34.35333115 -0.10297394 33.45011627 -0.09765625 32.51953125 C-0.0962413 31.59154221 -0.09482635 30.66355316 -0.09336853 29.70744324 C-0.08776937 26.74242942 -0.07521704 23.77749101 -0.0625 20.8125 C-0.05748489 18.80273547 -0.052922 16.79296975 -0.04882812 14.78320312 C-0.03865095 9.8554163 -0.01907533 4.9277926 0 0 Z " fill="#040404" transform="translate(40,40)"/>
<path d="M0 0 C1.859375 0.12109375 1.859375 0.12109375 4 1 C5.265625 3.72265625 5.265625 3.72265625 6.25 7.0625 C6.58515625 8.16722656 6.9203125 9.27195312 7.265625 10.41015625 C7.50796875 11.26480469 7.7503125 12.11945312 8 13 C9.50560497 10.14589666 10.63216796 7.31875358 11.625 4.25 C11.88539063 3.45078125 12.14578125 2.6515625 12.4140625 1.828125 C12.60742188 1.22484375 12.80078125 0.6215625 13 0 C14.32 0 15.64 0 17 0 C15.07443364 6.85618326 12.7527517 13.43252132 10 20 C8.68 20 7.36 20 6 20 C4.99183944 17.41958904 3.9932889 14.83613056 3 12.25 C2.71382812 11.52039062 2.42765625 10.79078125 2.1328125 10.0390625 C1.86210937 9.33007812 1.59140625 8.62109375 1.3125 7.890625 C1.06113281 7.24125977 0.80976563 6.59189453 0.55078125 5.92285156 C0 4 0 4 0 0 Z " fill="#111111" transform="translate(179,44)"/>
<path d="M0 0 C4.29 0 8.58 0 13 0 C13 0.99 13 1.98 13 3 C9.7 3 6.4 3 3 3 C3 4.98 3 6.96 3 9 C5.64 9 8.28 9 11 9 C11 9.66 11 10.32 11 11 C8.36 11 5.72 11 3 11 C3 13.31 3 15.62 3 18 C6.3 18 9.6 18 13 18 C13 18.66 13 19.32 13 20 C8.71 20 4.42 20 0 20 C0 13.4 0 6.8 0 0 Z " fill="#060606" transform="translate(206,44)"/>
<path d="M0 0 C0.495 0.99 0.495 0.99 1 2 C-3.74919788 14.08886733 -14.07549731 23.55388598 -25.8125 28.875 C-31.58395808 30.9119852 -36.75683178 31.128488 -42.8125 31.0625 C-43.99489258 31.05573242 -43.99489258 31.05573242 -45.20117188 31.04882812 C-47.13414761 31.03711312 -49.06708393 31.01917998 -51 31 C-51 30.67 -51 30.34 -51 30 C-49.83984375 29.91363281 -48.6796875 29.82726562 -47.484375 29.73828125 C-31.97358128 28.41534583 -19.51641017 24.57355089 -8.8125 12.625 C-5.56675619 8.6337352 -2.76891672 4.33011444 0 0 Z " fill="#111111" transform="translate(117,90)"/>
<path d="M0 0 C0.969375 0.556875 1.93875 1.11375 2.9375 1.6875 C4.29139522 2.45881 5.64558684 3.22959985 7 4 C7.73347656 4.42023438 8.46695313 4.84046875 9.22265625 5.2734375 C20.65508814 11.74462536 30.46309418 14.25073476 43.5 14.625 C44.60859375 14.66367188 45.7171875 14.70234375 46.859375 14.7421875 C49.57275797 14.83575243 52.28614661 14.92149483 55 15 C55 15.33 55 15.66 55 16 C50.71 16 46.42 16 42 16 C42 16.66 42 17.32 42 18 C27.28879239 17.73119056 11.24279143 12.99934906 0 3 C0 2.01 0 1.02 0 0 Z " fill="#1A1A1A" transform="translate(27,125)"/>
<path d="M0 0 C1.32 0 2.64 0 4 0 C4 3.96 4 7.92 4 12 C5.65 11.67 7.3 11.34 9 11 C9.33 7.37 9.66 3.74 10 0 C10.99 0 11.98 0 13 0 C13 4.95 13 9.9 13 15 C4.6015625 15.1953125 4.6015625 15.1953125 2 15 C0 13 0 13 -0.1953125 9.9609375 C-0.17210937 8.77757813 -0.14890625 7.59421875 -0.125 6.375 C-0.10695312 5.18648438 -0.08890625 3.99796875 -0.0703125 2.7734375 C-0.04710937 1.85820313 -0.02390625 0.94296875 0 0 Z " fill="#2B2B2B" transform="translate(227,85)"/>
<path d="M0 0 C8.3984375 -0.29296875 8.3984375 -0.29296875 11 0 C13.35119399 3.52679099 13.21443452 5.02879485 13.125 9.1875 C13.10695312 10.27417969 13.08890625 11.36085938 13.0703125 12.48046875 C13.03550781 13.72763672 13.03550781 13.72763672 13 15 C12.01 15 11.02 15 10 15 C9.67 11.37 9.34 7.74 9 4 C7.68 3.67 6.36 3.34 5 3 C4.67 6.96 4.34 10.92 4 15 C2.68 15 1.36 15 0 15 C0 10.05 0 5.1 0 0 Z " fill="#2B2B2B" transform="translate(170,85)"/>
<path d="M0 0 C1.32 0 2.64 0 4 0 C4.33 3.96 4.66 7.92 5 12 C6.65 12 8.3 12 10 12 C10 8.37 10 4.74 10 1 C10.99 1 11.98 1 13 1 C13 5.62 13 10.24 13 15 C4.6015625 15.29296875 4.6015625 15.29296875 2 15 C-0.35119399 11.47320901 -0.21443452 9.97120515 -0.125 5.8125 C-0.10695312 4.72582031 -0.08890625 3.63914063 -0.0703125 2.51953125 C-0.04710937 1.68808594 -0.02390625 0.85664062 0 0 Z " fill="#2C2C2C" transform="translate(237,49)"/>
<path d="M0 0 C0.99 0 1.98 0 3 0 C0.83836487 6.93998648 -1.8936214 13.43117569 -5 20 C-8.10207817 18.44896091 -8.36758693 15.93167897 -9.5625 12.75 C-9.99691406 11.61046875 -10.43132812 10.4709375 -10.87890625 9.296875 C-11.82457548 6.51588255 -12.51645387 3.89041057 -13 1 C-12.01 1 -11.02 1 -10 1 C-8.68 3.97 -7.36 6.94 -6 10 C-3.99006295 7.99006295 -3.10059081 6.40788768 -1.875 3.875 C-1.52179688 3.15054688 -1.16859375 2.42609375 -0.8046875 1.6796875 C-0.53914063 1.12539063 -0.27359375 0.57109375 0 0 Z " fill="#E1E1E1" transform="translate(93,60)"/>
<path d="M0 0 C1.32 0.33 2.64 0.66 4 1 C4.33 0.67 4.66 0.34 5 0 C7.4375 -0.1875 7.4375 -0.1875 10 0 C12 2 12 2 12.1953125 5.0390625 C12.17210937 6.22242188 12.14890625 7.40578125 12.125 8.625 C12.10695313 9.81351563 12.08890625 11.00203125 12.0703125 12.2265625 C12.04710937 13.14179687 12.02390625 14.05703125 12 15 C11.01 15 10.02 15 9 15 C9 11.04 9 7.08 9 3 C7.35 3.33 5.7 3.66 4 4 C3.67 7.63 3.34 11.26 3 15 C2.01 15 1.02 15 0 15 C0 10.05 0 5.1 0 0 Z " fill="#0B0B0B" transform="translate(317,49)"/>
<path d="M0 0 C1.875 2 1.875 2 3 4 C1.68 4 0.36 4 -1 4 C-1 3.34 -1 2.68 -1 2 C-2.32 2.33 -3.64 2.66 -5 3 C-5 3.66 -5 4.32 -5 5 C-3.865625 5.391875 -2.73125 5.78375 -1.5625 6.1875 C2 8 2 8 3.0625 10.5625 C3 13 3 13 1 15 C-0.875 15.265625 -0.875 15.265625 -3 15.25 C-3.70125 15.25515625 -4.4025 15.2603125 -5.125 15.265625 C-7 15 -7 15 -9 13 C-9 12.01 -9 11.02 -9 10 C-8.01 10 -7.02 10 -6 10 C-5.67 10.66 -5.34 11.32 -5 12 C-3.68 12 -2.36 12 -1 12 C-1 11.34 -1 10.68 -1 10 C-2.7015625 9.4121875 -2.7015625 9.4121875 -4.4375 8.8125 C-8 7 -8 7 -8.9375 4.3125 C-8.958125 3.549375 -8.97875 2.78625 -9 2 C-5.52957297 -0.31361802 -4.08165827 -0.51020728 0 0 Z " fill="#171717" transform="translate(195,85)"/>
<path d="M0 0 C0.66 0.33 1.32 0.66 2 1 C2 1.99 2 2.98 2 4 C-0.31 3.67 -2.62 3.34 -5 3 C-5 3.66 -5 4.32 -5 5 C-3.865625 5.391875 -2.73125 5.78375 -1.5625 6.1875 C2 8 2 8 3.0625 10.5625 C3 13 3 13 1 15 C-0.875 15.265625 -0.875 15.265625 -3 15.25 C-3.70125 15.25515625 -4.4025 15.2603125 -5.125 15.265625 C-7 15 -7 15 -9 13 C-9 12.01 -9 11.02 -9 10 C-8.01 10 -7.02 10 -6 10 C-5.67 10.66 -5.34 11.32 -5 12 C-3.68 12 -2.36 12 -1 12 C-1 11.34 -1 10.68 -1 10 C-2.7015625 9.4121875 -2.7015625 9.4121875 -4.4375 8.8125 C-8 7 -8 7 -8.9375 4.3125 C-8.958125 3.549375 -8.97875 2.78625 -9 2 C-5.54337669 -0.30441554 -4.05142119 -0.25860135 0 0 Z " fill="#171717" transform="translate(301,85)"/>
<path d="M0 0 C3.5 0.5 3.5 0.5 5.4375 2.375 C6.5 4.5 6.5 4.5 6.5 6.5 C5.18 6.5 3.86 6.5 2.5 6.5 C2.5 5.51 2.5 4.52 2.5 3.5 C0.85 3.5 -0.8 3.5 -2.5 3.5 C-2.5 6.14 -2.5 8.78 -2.5 11.5 C-0.025 12.49 -0.025 12.49 2.5 13.5 C2.83 12.51 3.16 11.52 3.5 10.5 C4.49 10.5 5.48 10.5 6.5 10.5 C4.625 14.375 4.625 14.375 3.5 15.5 C-2.62145749 15.9534413 -2.62145749 15.9534413 -5.4375 14.5 C-7.15568309 11.26577301 -7.00418159 8.02927111 -6.5 4.5 C-4.91542539 0.77158916 -4.0478265 0.57826093 0 0 Z " fill="#101010" transform="translate(259.5,48.5)"/>
<path d="M0 0 C2 3 2 3 1.75 5.5625 C1 8 1 8 -1 10 C-4.625 9.625 -4.625 9.625 -8 9 C-9.32561852 2.61292897 -9.32561852 2.61292897 -7.9375 0 C-4.99948754 -1.51639353 -3.09843192 -0.92293717 0 0 Z " fill="#ABABAB" transform="translate(313,75)"/>
<path d="M0 0 C0.33 0 0.66 0 1 0 C1 11.22 1 22.44 1 34 C0.34 34 -0.32 34 -1 34 C-4.6668768 22.59031563 -3.54589465 11.33419898 0 0 Z " fill="#2A2A2A" transform="translate(3,52)"/>
<path d="M0 0 C0.99 0 1.98 0 3 0 C3 0.99 3 1.98 3 3 C3.99 3 4.98 3 6 3 C6 3.99 6 4.98 6 6 C5.01 6 4.02 6 3 6 C3 9.3 3 12.6 3 16 C3.99 16 4.98 16 6 16 C6 16.66 6 17.32 6 18 C4.33388095 18.042721 2.66617115 18.04063832 1 18 C0 17 0 17 -0.09765625 14.49609375 C-0.08605469 13.48675781 -0.07445312 12.47742188 -0.0625 11.4375 C-0.05347656 10.42558594 -0.04445313 9.41367187 -0.03515625 8.37109375 C-0.02355469 7.58863281 -0.01195312 6.80617188 0 6 C-0.99 6 -1.98 6 -3 6 C-3 5.01 -3 4.02 -3 3 C-2.01 3 -1.02 3 0 3 C0 2.01 0 1.02 0 0 Z " fill="#111111" transform="translate(285,46)"/>
<path d="M0 0 C3.3 0 6.6 0 10 0 C10 0.66 10 1.32 10 2 C8.02 2.33 6.04 2.66 4 3 C3.67 8.61 3.34 14.22 3 20 C2.01 20 1.02 20 0 20 C0 13.4 0 6.8 0 0 Z " fill="#E0E0E0" transform="translate(49,60)"/>
<path d="M0 0 C0.99 0 1.98 0 3 0 C3 0.99 3 1.98 3 3 C3.99 3 4.98 3 6 3 C6 3.66 6 4.32 6 5 C5.01 5 4.02 5 3 5 C3 8.3 3 11.6 3 15 C3.99 15 4.98 15 6 15 C6 15.99 6 16.98 6 18 C4.33388095 18.042721 2.66617115 18.04063832 1 18 C0 17 0 17 -0.09765625 14.27734375 C-0.08605469 13.17519531 -0.07445312 12.07304688 -0.0625 10.9375 C-0.05347656 9.83277344 -0.04445312 8.72804688 -0.03515625 7.58984375 C-0.02355469 6.73519531 -0.01195312 5.88054687 0 5 C-0.99 5 -1.98 5 -3 5 C-3 4.34 -3 3.68 -3 3 C-2.01 3 -1.02 3 0 3 C0 2.01 0 1.02 0 0 Z " fill="#0A0A0A" transform="translate(219,82)"/>
<path d="M0 0 C2.64 0 5.28 0 8 0 C11 5.625 11 5.625 11 9 C10.34 9 9.68 9 9 9 C8.34 7.02 7.68 5.04 7 3 C6.01 3 5.02 3 4 3 C5.98 7.95 7.96 12.9 10 18 C8.68 17.67 7.36 17.34 6 17 C4.55078125 14.19921875 4.55078125 14.19921875 3.3125 10.6875 C2.89613281 9.53636719 2.47976562 8.38523437 2.05078125 7.19921875 C1.26338876 4.80191596 0.55243755 2.45865063 0 0 Z " fill="#282828" transform="translate(76,58)"/>
<path d="M0 0 C0.99 0 1.98 0 3 0 C3 0.99 3 1.98 3 3 C3.99 3 4.98 3 6 3 C6 3.66 6 4.32 6 5 C5.01 5 4.02 5 3 5 C3 8.3 3 11.6 3 15 C3.99 15 4.98 15 6 15 C6 15.99 6 16.98 6 18 C4.33388095 18.042721 2.66617115 18.04063832 1 18 C0 17 0 17 -0.09765625 14.27734375 C-0.08605469 13.17519531 -0.07445312 12.07304688 -0.0625 10.9375 C-0.05347656 9.83277344 -0.04445312 8.72804688 -0.03515625 7.58984375 C-0.02355469 6.73519531 -0.01195312 5.88054687 0 5 C-0.66 5 -1.32 5 -2 5 C-2 4.34 -2 3.68 -2 3 C-1.34 3 -0.68 3 0 3 C0 2.01 0 1.02 0 0 Z " fill="#0C0C0C" transform="translate(202,82)"/>
<path d="M0 0 C2.64 0 5.28 0 8 0 C9.125 4.75 9.125 4.75 8 7 C6.02 7 4.04 7 2 7 C1.67 10.3 1.34 13.6 1 17 C0.67 17 0.34 17 0 17 C0 11.39 0 5.78 0 0 Z " fill="#696969" transform="translate(52,63)"/>
<path d="M0 0 C0.94875 0.04125 1.8975 0.0825 2.875 0.125 C3.68467438 3.03982778 4.09345993 4.58613217 2.9375 7.4375 C2.586875 7.994375 2.23625 8.55125 1.875 9.125 C-1 9.25 -1 9.25 -4.125 9.125 C-4.785 8.465 -5.445 7.805 -6.125 7.125 C-5.66604657 2.53546569 -4.9886353 0.19954541 0 0 Z " fill="#232323" transform="translate(338.125,54.875)"/>
<path d="M0 0 C0.99 0 1.98 0 3 0 C3 0.99 3 1.98 3 3 C3.99 3 4.98 3 6 3 C6 3.66 6 4.32 6 5 C5.01 5 4.02 5 3 5 C3 8.3 3 11.6 3 15 C3.99 15 4.98 15 6 15 C6 15.99 6 16.98 6 18 C1.125 17.125 1.125 17.125 0 16 C-0.07226502 14.14712498 -0.0838122 12.29166122 -0.0625 10.4375 C-0.05347656 9.42558594 -0.04445312 8.41367188 -0.03515625 7.37109375 C-0.02355469 6.58863281 -0.01195312 5.80617188 0 5 C-0.66 5 -1.32 5 -2 5 C-2 4.34 -2 3.68 -2 3 C-1.34 3 -0.68 3 0 3 C0 2.01 0 1.02 0 0 Z " fill="#030303" transform="translate(244,82)"/>
<path d="M0 0 C0.66 0 1.32 0 2 0 C-0.11749519 10.83547089 -3.96743299 18.85801009 -10 28 C-10.66 27.67 -11.32 27.34 -12 27 C-10.45207884 22.91071574 -8.55650129 19.07687457 -6.5625 15.1875 C-4.0382618 10.21723393 -1.79543434 5.28068923 0 0 Z " fill="#131313" transform="translate(140,86)"/>
<path d="M0 0 C0.33 0.99 0.66 1.98 1 3 C1.66 2.67 2.32 2.34 3 2 C3 2.99 3 3.98 3 5 C3.99 5 4.98 5 6 5 C2.25 9.875 2.25 9.875 0 11 C-0.33 11.66 -0.66 12.32 -1 13 C-2.65 12.01 -4.3 11.02 -6 10 C-4.6302836 6.00499382 -2.74277578 3.19990508 0 0 Z " fill="#656565" transform="translate(22,32)"/>
<path d="M0 0 C0.94875 0.04125 1.8975 0.0825 2.875 0.125 C2.94927838 3.46752724 2.94046953 5.9285914 1.875 9.125 C-1 9.25 -1 9.25 -4.125 9.125 C-4.785 8.465 -5.445 7.805 -6.125 7.125 C-5.66604657 2.53546569 -4.9886353 0.19954541 0 0 Z " fill="#111111" transform="translate(274.125,54.875)"/>
<path d="M0 0 C0.66 0 1.32 0 2 0 C2.66 1.98 3.32 3.96 4 6 C2.68 5.67 1.36 5.34 0 5 C-0.33 5.99 -0.66 6.98 -1 8 C-1.33 7.67 -1.66 7.34 -2 7 C-2.99 8.485 -2.99 8.485 -4 10 C-5.65 9.67 -7.3 9.34 -9 9 C-9 7.35 -9 5.7 -9 4 C-8.360625 3.855625 -7.72125 3.71125 -7.0625 3.5625 C-5.02454854 3.18992819 -5.02454854 3.18992819 -4 2 C-1 2 -1 2 1 3 C0.67 2.01 0.34 1.02 0 0 Z " fill="#727272" transform="translate(96,122)"/>
<path d="M0 0 C3.3768151 4.50242014 3.3768151 4.50242014 3.328125 9.0625 C3.32296875 10.02414063 3.3178125 10.98578125 3.3125 11.9765625 C3.291875 12.97429687 3.27125 13.97203125 3.25 15 C3.24484375 15.99773437 3.2396875 16.99546875 3.234375 18.0234375 C3.14849159 26.03206511 3.14849159 26.03206511 2 30 C1.34 30 0.68 30 0 30 C0 20.1 0 10.2 0 0 Z " fill="#101010" transform="translate(140,56)"/>
<path d="M0 0 C0.99 0 1.98 0 3 0 C3 6.93 3 13.86 3 21 C2.01 21 1.02 21 0 21 C0 14.07 0 7.14 0 0 Z " fill="#000000" transform="translate(349,43)"/>
<path d="M0 0 C3.53571429 0.53571429 3.53571429 0.53571429 5 2 C5.125 5.5 5.125 5.5 5 9 C4 10 4 10 1.5 10.125 C-1 10 -1 10 -2 9 C-2.1875 5.5625 -2.1875 5.5625 -2 2 C-1.34 1.34 -0.68 0.68 0 0 Z " fill="#EEEEEE" transform="translate(265,87)"/>
<path d="M0 0 C0.33 0 0.66 0 1 0 C1.08834684 3.31232698 1.14083584 6.62434435 1.1875 9.9375 C1.21263672 10.86369141 1.23777344 11.78988281 1.26367188 12.74414062 C1.33010773 19.05554674 0.40207858 24.15864318 -2 30 C-2.99 30 -3.98 30 -5 30 C-4.80664062 29.42636719 -4.61328125 28.85273437 -4.4140625 28.26171875 C-1.57595419 19.00274165 -0.84570583 9.60124851 0 0 Z " fill="#222222" transform="translate(121,61)"/>
<path d="M0 0 C4.70588235 0.70588235 4.70588235 0.70588235 6 2 C5.71269945 4.33944736 5.38063221 6.6739143 5 9 C3.34385343 9.38218767 1.67542976 9.71395102 0 10 C-1 9 -1 9 -1.1328125 7.1875 C-1.13023437 6.465625 -1.12765625 5.74375 -1.125 5 C-1.12757813 4.278125 -1.13015625 3.55625 -1.1328125 2.8125 C-1 1 -1 1 0 0 Z " fill="#F0F0F0" transform="translate(305,52)"/>
<path d="M0 0 C1.66611905 -0.042721 3.33382885 -0.04063832 5 0 C6 1 6 1 6.09765625 2.84765625 C6.06510417 4.8984375 6.03255208 6.94921875 6 9 C4.35 9.33 2.7 9.66 1 10 C-1.56687367 6.1496895 -0.83288724 4.41430237 0 0 Z " fill="#E6E6E6" transform="translate(225,52)"/>
<path d="M0 0 C0.99 0 1.98 0 3 0 C3 6.6 3 13.2 3 20 C2.01 20 1.02 20 0 20 C0 13.4 0 6.8 0 0 Z " fill="#000000" transform="translate(163,80)"/>
<path d="M0 0 C0.66 0 1.32 0 2 0 C2.14695312 0.65484375 2.29390625 1.3096875 2.4453125 1.984375 C4.09043443 8.6783194 6.51529218 14.40783956 9.79296875 20.46875 C11 23 11 23 11 26 C4.59480821 21.05885205 2.04292179 13.11564555 0.46484375 5.375 C0.23864886 3.59092764 0.105603 1.79525104 0 0 Z " fill="#161616" transform="translate(22,77)"/>
<path d="M0 0 C0.66 0 1.32 0 2 0 C2.33 1.65 2.66 3.3 3 5 C3.66 3.35 4.32 1.7 5 0 C5.66 0 6.32 0 7 0 C9.125 4.625 9.125 4.625 8 8 C6.68 7.34 5.36 6.68 4 6 C4 6.66 4 7.32 4 8 C2.68 8 1.36 8 0 8 C0 7.01 0 6.02 0 5 C-0.66 5 -1.32 5 -2 5 C-2 5.99 -2 6.98 -2 8 C-2.66 8 -3.32 8 -4 8 C-4 5.69 -4 3.38 -4 1 C-3.67 1.66 -3.34 2.32 -3 3 C-2.01 3 -1.02 3 0 3 C0 2.01 0 1.02 0 0 Z " fill="#5D5D5D" transform="translate(67,8)"/>
<path d="M0 0 C0.66 0 1.32 0 2 0 C1.67 1.65 1.34 3.3 1 5 C1.99 4.34 2.98 3.68 4 3 C4.99 3 5.98 3 7 3 C7 3.66 7 4.32 7 5 C7.66 5 8.32 5 9 5 C7.95125002 7.62187494 7.35068687 8.79371361 4.875 10.25 C4.25625 10.4975 3.6375 10.745 3 11 C2.62875 10.0409375 2.62875 10.0409375 2.25 9.0625 C1.18437567 6.81258459 1.18437567 6.81258459 -1.125 6.25 C-1.74375 6.1675 -2.3625 6.085 -3 6 C-1.125 1.125 -1.125 1.125 0 0 Z " fill="#313131" transform="translate(107,20)"/>
<path d="M0 0 C-1.00160156 0.59167969 -2.00320312 1.18335938 -3.03515625 1.79296875 C-4.37770016 2.59098436 -5.72014265 3.38917061 -7.0625 4.1875 C-7.71927734 4.57486328 -8.37605469 4.96222656 -9.05273438 5.36132812 C-13.53876319 8.03526648 -17.78577998 10.91468677 -22 14 C-19.72080445 6.63060105 -12.93308001 3.73812149 -6.625 0 C-3.72046637 -1.106489 -2.86233838 -0.87697176 0 0 Z " fill="#1E1E1E" transform="translate(46,7)"/>
<path d="M0 0 C0.99 0.103125 1.98 0.20625 3 0.3125 C5.35119399 3.83929099 5.21443452 5.34129485 5.125 9.5 C5.10695312 10.58667969 5.08890625 11.67335938 5.0703125 12.79296875 C5.03550781 14.04013672 5.03550781 14.04013672 5 15.3125 C4.01 15.3125 3.02 15.3125 2 15.3125 C1.67 11.6825 1.34 8.0525 1 4.3125 C-0.98 3.6525 -2.96 2.9925 -5 2.3125 C-3 0.3125 -3 0.3125 0 0 Z " fill="#131313" transform="translate(178,84.6875)"/>
<path d="M0 0 C1 1 1 1 1.0625 4.5625 C1.041875 5.696875 1.02125 6.83125 1 8 C0.01 8 -0.98 8 -2 8 C-1.67 7.67 -1.34 7.34 -1 7 C-0.95936168 5.33382885 -0.957279 3.66611905 -1 2 C-1.33 2 -1.66 2 -2 2 C-2 3.65 -2 5.3 -2 7 C-3.33333333 7 -4.66666667 7 -6 7 C-6.33 5.35 -6.66 3.7 -7 2 C-7.15149298 5.62885324 -7.15149298 5.62885324 -6 9 C-6.99 8.67 -7.98 8.34 -9 8 C-10.11938915 5.50290113 -10.14506134 4.39054977 -9.1875 1.8125 C-6.69666631 -1.98929879 -4.01826163 -0.85494928 0 0 Z " fill="#606060" transform="translate(142,1)"/>
<path d="M0 0 C0.66 0.33 1.32 0.66 2 1 C1.67 1.99 1.34 2.98 1 4 C0.96045766 6.33299825 0.95598268 8.66708189 1 11 C2.32 11.66 3.64 12.32 5 13 C4.01 13 3.02 13 2 13 C2 13.66 2 14.32 2 15 C-1.16115776 13.63016497 -1.9927092 13.0109362 -4 10 C-3.66947207 3.83014537 -3.66947207 3.83014537 -1.4375 1.0625 C-0.7259375 0.5365625 -0.7259375 0.5365625 0 0 Z " fill="#202020" transform="translate(263,85)"/>
<path d="M0 0 C3.26954202 0.56371414 4.82575883 1.49962266 7 4 C5.68 4 4.36 4 3 4 C2.67 5.32 2.34 6.64 2 8 C-1.79557881 8 -3.62902617 7.49821059 -7 6 C-6.01 5.34 -5.02 4.68 -4 4 C-4 3.34 -4 2.68 -4 2 C-3.01 2.33 -2.02 2.66 -1 3 C-0.67 2.01 -0.34 1.02 0 0 Z " fill="#606060" transform="translate(34,21)"/>
<path d="M0 0 C3.51780586 1.44399018 5.16002211 3.19270658 7.375 6.25 C10.3278272 10.19773225 13.4310406 13.60513618 17 17 C16.67 17.99 16.34 18.98 16 20 C9.80135701 14.09446273 4.09296899 8.62139054 0 1 C0 0.67 0 0.34 0 0 Z " fill="#141414" transform="translate(10,107)"/>
<path d="M0 0 C0.99 0 1.98 0 3 0 C3 4.95 3 9.9 3 15 C0.69 14.67 -1.62 14.34 -4 14 C-3.51917969 13.62230469 -3.03835937 13.24460937 -2.54296875 12.85546875 C-0.46337042 10.35468595 -0.50158423 8.52693196 -0.3125 5.3125 C-0.24675781 4.31863281 -0.18101562 3.32476562 -0.11328125 2.30078125 C-0.07589844 1.54152344 -0.03851563 0.78226562 0 0 Z " fill="#0C0C0C" transform="translate(237,85)"/>
<path d="M0 0 C0.66 0.99 1.32 1.98 2 3 C2.99 3.33 3.98 3.66 5 4 C5 4.66 5 5.32 5 6 C4.34 6 3.68 6 3 6 C3.33 7.32 3.66 8.64 4 10 C3.01 10 2.02 10 1 10 C1 10.99 1 11.98 1 13 C-0.65 12.67 -2.3 12.34 -4 12 C-3.01 11.67 -2.02 11.34 -1 11 C-1 10.01 -1 9.02 -1 8 C-1.66 8 -2.32 8 -3 8 C-1.125 1.125 -1.125 1.125 0 0 Z " fill="#666666" transform="translate(15,43)"/>
<path d="M0 0 C6.93 0.495 6.93 0.495 14 1 C14 1.66 14 2.32 14 3 C13.34 3 12.68 3 12 3 C11.67 4.98 11.34 6.96 11 9 C10.67 9 10.34 9 10 9 C10 7.02 10 5.04 10 3 C9.01 3 8.02 3 7 3 C7 4.65 7 6.3 7 8 C6.34 8 5.68 8 5 8 C5.33 6.02 5.66 4.04 6 2 C2.88667752 2.66868314 2.88667752 2.66868314 1.8125 5.0625 C1.544375 5.701875 1.27625 6.34125 1 7 C0.67 4.69 0.34 2.38 0 0 Z " fill="#444444" transform="translate(56,126)"/>
<path d="M0 0 C2.0625 0.4375 2.0625 0.4375 4 1 C3.67 1.66 3.34 2.32 3 3 C3 3.66 3 4.32 3 5 C3 5.66 3 6.32 3 7 C3.928125 6.2575 3.928125 6.2575 4.875 5.5 C7 4 7 4 9 4 C8.67 6.31 8.34 8.62 8 11 C7.67 10.34 7.34 9.68 7 9 C5.10466658 8.53476937 5.10466658 8.53476937 2.9375 8.375 C1.638125 8.25125 0.33875 8.1275 -1 8 C-1.33 6.68 -1.66 5.36 -2 4 C-1.67 4.66 -1.34 5.32 -1 6 C-0.34 6 0.32 6 1 6 C0.34 4.35 -0.32 2.7 -1 1 C-0.67 0.67 -0.34 0.34 0 0 Z " fill="#4A4A4A" transform="translate(95,13)"/>
<path d="M0 0 C0.70189453 0.00451172 1.40378906 0.00902344 2.12695312 0.01367188 C3.85550538 0.02543073 5.58401365 0.04336546 7.3125 0.0625 C6.9825 1.0525 6.6525 2.0425 6.3125 3.0625 C0.7025 3.0625 -4.9075 3.0625 -10.6875 3.0625 C-10.6875 2.4025 -10.6875 1.7425 -10.6875 1.0625 C-7.06882441 -0.1437252 -3.76243749 -0.04566918 0 0 Z " fill="#383838" transform="translate(71.6875,20.9375)"/>
<path d="M0 0 C0.33 0 0.66 0 1 0 C1 5.61 1 11.22 1 17 C0.01 17.33 -0.98 17.66 -2 18 C-2.054138 15.75026553 -2.09285491 13.50015617 -2.125 11.25 C-2.14820312 9.99703125 -2.17140625 8.7440625 -2.1953125 7.453125 C-2.01537302 4.27179508 -1.68998582 2.63478104 0 0 Z " fill="#3D3D3D" transform="translate(23,60)"/>
<path d="M0 0 C1.99954746 -0.04254356 4.00041636 -0.04080783 6 0 C7 1 7 1 7.125 3.5 C7 6 7 6 6 7 C4.00041636 7.04080783 1.99954746 7.04254356 0 7 C0 4.69 0 2.38 0 0 Z " fill="#E7E7E7" transform="translate(166,47)"/>
<path d="M0 0 C0.99 0 1.98 0 3 0 C3 4.62 3 9.24 3 14 C1.35 13.67 -0.3 13.34 -2 13 C-2 12.34 -2 11.68 -2 11 C-1.34 11 -0.68 11 0 11 C0 7.37 0 3.74 0 0 Z " fill="#090909" transform="translate(247,50)"/>
<path d="M0 0 C0.99 0 1.98 0 3 0 C3 4.95 3 9.9 3 15 C2.01 15 1.02 15 0 15 C0 10.05 0 5.1 0 0 Z " fill="#000000" transform="translate(253,85)"/>
<path d="M0 0 C0.99 0 1.98 0 3 0 C3 4.95 3 9.9 3 15 C2.01 15 1.02 15 0 15 C0 10.05 0 5.1 0 0 Z " fill="#080808" transform="translate(211,85)"/>
<path d="M0 0 C2.475 0.495 2.475 0.495 5 1 C5 5.29 5 9.58 5 14 C4.01 14 3.02 14 2 14 C2 10.04 2 6.08 2 2 C1.34 2 0.68 2 0 2 C0 1.34 0 0.68 0 0 Z " fill="#010101" transform="translate(324,50)"/>
<path d="M0 0 C0.99 0 1.98 0 3 0 C3 4.95 3 9.9 3 15 C2.01 15 1.02 15 0 15 C0 10.05 0 5.1 0 0 Z " fill="#050505" transform="translate(294,49)"/>
<path d="M0 0 C1.9375 0.8125 1.9375 0.8125 4 2 C4.33 2.99 4.66 3.98 5 5 C5.66 4.67 6.32 4.34 7 4 C6.49396008 6.16874252 6.00016187 7.99967627 5 10 C4.34 10 3.68 10 3 10 C2.67 9.01 2.34 8.02 2 7 C1.01 7.495 1.01 7.495 0 8 C-0.33 7.34 -0.66 6.68 -1 6 C-1.99 6.495 -1.99 6.495 -3 7 C-1.125 2.25 -1.125 2.25 0 0 Z " fill="#1C1C1C" transform="translate(42,119)"/>
<path d="M0 0 C0.33 2.31 0.66 4.62 1 7 C0.34 6.34 -0.32 5.68 -1 5 C-1 4.01 -1 3.02 -1 2 C-1.99 2 -2.98 2 -4 2 C-4 3.98 -4 5.96 -4 8 C-4.66 7.34 -5.32 6.68 -6 6 C-6 5.01 -6 4.02 -6 3 C-6.66 3 -7.32 3 -8 3 C-8 4.65 -8 6.3 -8 8 C-8.66 8 -9.32 8 -10 8 C-10 5.69 -10 3.38 -10 1 C-2.25 0 -2.25 0 0 0 Z " fill="#4C4C4C" transform="translate(85,126)"/>
<path d="M0 0 C5.94 0.99 5.94 0.99 12 2 C12 2.66 12 3.32 12 4 C16.29 4 20.58 4 25 4 C25 4.33 25 4.66 25 5 C8.29157175 5.55353075 8.29157175 5.55353075 0 2 C0 1.34 0 0.68 0 0 Z " fill="#2D2D2D" transform="translate(54,117)"/>
<path d="M0 0 C0.99 0.33 1.98 0.66 3 1 C2.50628906 1.95261719 2.01257812 2.90523437 1.50390625 3.88671875 C0.85644963 5.15348171 0.20933206 6.42041801 -0.4375 7.6875 C-0.76298828 8.31333984 -1.08847656 8.93917969 -1.42382812 9.58398438 C-3.17752313 13.03713639 -4.47760497 16.15193519 -5 20 C-6.140625 18.41015625 -6.140625 18.41015625 -7 16 C-6.171875 12.87109375 -6.171875 12.87109375 -4.75 9.4375 C-4.29109375 8.30183594 -3.8321875 7.16617188 -3.359375 5.99609375 C-2 3 -2 3 0 0 Z " fill="#1A1A1A" transform="translate(10,35)"/>
<path d="M0 0 C0.66 0 1.32 0 2 0 C2.66 2.31 3.32 4.62 4 7 C2.68 7.33 1.36 7.66 0 8 C0 7.34 0 6.68 0 6 C-1.65 6 -3.3 6 -5 6 C-4.67 4.68 -4.34 3.36 -4 2 C-2.68 2 -1.36 2 0 2 C0 1.34 0 0.68 0 0 Z " fill="#6B6B6B" transform="translate(46,13)"/>
<path d="M0 0 C0.33 0.66 0.66 1.32 1 2 C0.67 2.66 0.34 3.32 0 4 C1.32 4.33 2.64 4.66 4 5 C4 6.32 4 7.64 4 9 C2.35 9.66 0.7 10.32 -1 11 C-1.68707555 8.50935112 -2 6.62113708 -2 4 C-2.66 3.67 -3.32 3.34 -4 3 C-2.68 2.01 -1.36 1.02 0 0 Z " fill="#2A2A2A" transform="translate(121,33)"/>
<path d="M0 0 C1.32 0 2.64 0 4 0 C6.875 6.625 6.875 6.625 8 10 C6.68 10 5.36 10 4 10 C1.03256687 6.37313728 0 4.7546322 0 0 Z " fill="#ECECEC" transform="translate(55,70)"/>
<path d="M0 0 C0.474375 0.639375 0.94875 1.27875 1.4375 1.9375 C2.83738726 3.88293306 2.83738726 3.88293306 4 5 C4 3.35 4 1.7 4 0 C4.99 0.33 5.98 0.66 7 1 C7.20086443 4.71599191 7.1519437 5.77208445 5 9 C3.68 9 2.36 9 1 9 C-1.14809171 5.77786243 -1.29386153 4.72224599 -1 1 C-0.67 0.67 -0.34 0.34 0 0 Z " fill="#D5D5D5" transform="translate(135,2)"/>
<path d="M0 0 C7.92 0 15.84 0 24 0 C24 0.33 24 0.66 24 1 C19.71 1 15.42 1 11 1 C11 1.66 11 2.32 11 3 C9.54077307 2.88590407 8.08259402 2.75834456 6.625 2.625 C5.40683594 2.52058594 5.40683594 2.52058594 4.1640625 2.4140625 C2 2 2 2 0 0 Z " fill="#4E4E4E" transform="translate(58,140)"/>
<path d="M0 0 C0.268125 0.5775 0.53625 1.155 0.8125 1.75 C1.95053246 4.05747896 1.95053246 4.05747896 3.625 6.125 C5 8 5 8 5 10 C6.65 9.67 8.3 9.34 10 9 C10 9.66 10 10.32 10 11 C8.02 11.33 6.04 11.66 4 12 C3.34 11.01 2.68 10.02 2 9 C1.34 9.99 0.68 10.98 0 12 C-0.19573608 10.56359829 -0.38127816 9.12580496 -0.5625 7.6875 C-0.66691406 6.88699219 -0.77132812 6.08648437 -0.87890625 5.26171875 C-1 3 -1 3 0 0 Z " fill="#202020" transform="translate(54,70)"/>
<path d="M0 0 C0.598125 0.226875 1.19625 0.45375 1.8125 0.6875 C1.8125 3.02083333 1.8125 5.35416667 1.8125 7.6875 C0.4925 7.6875 -0.8275 7.6875 -2.1875 7.6875 C-2.5175 6.3675 -2.8475 5.0475 -3.1875 3.6875 C-3.8475 5.0075 -4.5075 6.3275 -5.1875 7.6875 C-5.41803497 4.84423536 -5.54653101 3.22604651 -3.9375 0.8125 C-2.1875 -0.3125 -2.1875 -0.3125 0 0 Z " fill="#656565" transform="translate(309.1875,74.3125)"/>
<path d="M0 0 C1.60463449 0.31008884 3.20869231 0.62316287 4.8125 0.9375 C5.70582031 1.11152344 6.59914063 1.28554687 7.51953125 1.46484375 C10 2 10 2 13 3 C13 3.66 13 4.32 13 5 C13.66 5.33 14.32 5.66 15 6 C9.34979382 5.39891424 4.33835539 3.92471317 -1 2 C-0.67 1.34 -0.34 0.68 0 0 Z " fill="#262626" transform="translate(45,136)"/>
<path d="M0 0 C0 3 0 3 -1.35546875 4.421875 C-6.34853626 8.04158279 -6.34853626 8.04158279 -9.9375 7.8125 C-10.618125 7.544375 -11.29875 7.27625 -12 7 C-12 6.34 -12 5.68 -12 5 C-10.948125 4.731875 -9.89625 4.46375 -8.8125 4.1875 C-5.42480754 3.1323171 -2.92910433 1.95273622 0 0 Z " fill="#101010" transform="translate(81,109)"/>
<path d="M0 0 C0.66 0 1.32 0 2 0 C1.34728444 3.51705958 0.48606976 6.89325077 -0.5625 10.3125 C-0.83191406 11.19550781 -1.10132813 12.07851562 -1.37890625 12.98828125 C-1.58386719 13.65214844 -1.78882813 14.31601563 -2 15 C-2.99 14.67 -3.98 14.34 -5 14 C-4.54636829 12.41531323 -4.08688548 10.83230076 -3.625 9.25 C-3.36976563 8.36828125 -3.11453125 7.4865625 -2.8515625 6.578125 C-2.0790066 4.23919428 -1.16374324 2.16557438 0 0 Z " fill="#2A2A2A" transform="translate(140,86)"/>
<path d="M0 0 C4.67105792 1.55701931 8.08705685 4.08447373 12 7 C11.67 7.99 11.34 8.98 11 10 C9.16106176 8.71632558 7.32897375 7.42283239 5.5 6.125 C4.4790625 5.40570313 3.458125 4.68640625 2.40625 3.9453125 C1.6121875 3.30335937 0.818125 2.66140625 0 2 C0 1.34 0 0.68 0 0 Z " fill="#1D1D1D" transform="translate(57,106)"/>
<path d="M0 0 C3.81684226 1.55500981 6.19195732 4.03595495 9 7 C8.67 7.99 8.34 8.98 8 10 C6.65787938 8.90653119 5.32652025 7.7998425 4 6.6875 C3.2575 6.07261719 2.515 5.45773438 1.75 4.82421875 C0 3 0 3 0 0 Z " fill="#2E2E2E" transform="translate(33,102)"/>
<path d="M0 0 C0.33 1.65 0.66 3.3 1 5 C-1.31 5.66 -3.62 6.32 -6 7 C-5.34 5.68 -4.68 4.36 -4 3 C-4.99 2.67 -5.98 2.34 -7 2 C-2.25 0 -2.25 0 0 0 Z " fill="#505050" transform="translate(132,50)"/>
<path d="M0 0 C4.75 0.875 4.75 0.875 7 2 C7.33 1.34 7.66 0.68 8 0 C8 0.99 8 1.98 8 3 C5.75 4.125 5.75 4.125 3 5 C0.6875 4.125 0.6875 4.125 -1 3 C-0.67 2.01 -0.34 1.02 0 0 Z " fill="#BFBFBF" transform="translate(296,87)"/>
<path d="M0 0 C0.99 0 1.98 0 3 0 C2.01 2.97 1.02 5.94 0 9 C-0.99 8.67 -1.98 8.34 -3 8 C-2.45276317 4.62537285 -1.9451 2.91765 0 0 Z " fill="#D0D0D0" transform="translate(93,60)"/>
<path d="M0 0 C0.66 0 1.32 0 2 0 C2.66 1.98 3.32 3.96 4 6 C2.68 5.67 1.36 5.34 0 5 C-0.33 5.99 -0.66 6.98 -1 8 C-1.99 6.02 -2.98 4.04 -4 2 C-1 2 -1 2 1 3 C0.67 2.01 0.34 1.02 0 0 Z " fill="#292929" transform="translate(96,122)"/>
<path d="M0 0 C1 3 1 3 -0.4375 6.1875 C-1.2109375 7.5796875 -1.2109375 7.5796875 -2 9 C-2.99 9 -3.98 9 -5 9 C-5.66 7.02 -6.32 5.04 -7 3 C-6.34 3 -5.68 3 -5 3 C-4.67 3.99 -4.34 4.98 -4 6 C-2.68 4.02 -1.36 2.04 0 0 Z " fill="#050505" transform="translate(91,73)"/>
<path d="M0 0 C1.65 0 3.3 0 5 0 C4.67 1.65 4.34 3.3 4 5 C2.35 4.67 0.7 4.34 -1 4 C-0.67 2.68 -0.34 1.36 0 0 Z " fill="#D2D2D2" transform="translate(272,57)"/>
<path d="M0 0 C3.81684226 1.55500981 6.19195732 4.03595495 9 7 C8.67 7.99 8.34 8.98 8 10 C6.66070495 8.71451591 5.32871357 7.42141845 4 6.125 C2.88625 5.04605469 2.88625 5.04605469 1.75 3.9453125 C0 2 0 2 0 0 Z " fill="#0E0E0E" transform="translate(18,117)"/>
<path d="M0 0 C0.66 0.33 1.32 0.66 2 1 C2.33 1 2.66 1 3 1 C4.32 1 5.64 1 7 1 C7 2.32 7 3.64 7 5 C6.01 5.33 5.02 5.66 4 6 C4 5.01 4 4.02 4 3 C3.67 3.66 3.34 4.32 3 5 C1.68 4.67 0.36 4.34 -1 4 C-0.67 2.68 -0.34 1.36 0 0 Z " fill="#484848" transform="translate(10,57)"/>
<path d="M0 0 C1.32 0 2.64 0 4 0 C4 0.66 4 1.32 4 2 C5.32 2.33 6.64 2.66 8 3 C6.3125 4.125 6.3125 4.125 4 5 C1.25 4.125 1.25 4.125 -1 3 C-0.67 2.01 -0.34 1.02 0 0 Z " fill="#CECECE" transform="translate(190,87)"/>
<path d="M0 0 C1.98 0 3.96 0 6 0 C6 1.66666667 6 3.33333333 6 5 C3.69 5 1.38 5 -1 5 C-0.67 4.01 -0.34 3.02 0 2 C0.66 2 1.32 2 2 2 C1.34 1.34 0.68 0.68 0 0 Z " fill="#343434" transform="translate(9,71)"/>
<path d="M0 0 C1.2065625 0.0309375 1.2065625 0.0309375 2.4375 0.0625 C2.1075 1.3825 1.7775 2.7025 1.4375 4.0625 C0.1175 4.3925 -1.2025 4.7225 -2.5625 5.0625 C-3.125 3.125 -3.125 3.125 -3.5625 1.0625 C-2.5625 0.0625 -2.5625 0.0625 0 0 Z " fill="#D8D8D8" transform="translate(339.5625,56.9375)"/>
<path d="M0 0 C3.3125 -0.25 3.3125 -0.25 7 0 C8.9375 1.875 8.9375 1.875 10 4 C10 4.66 10 5.32 10 6 C8.68 6 7.36 6 6 6 C5.67 4.35 5.34 2.7 5 1 C3.35 1 1.7 1 0 1 C0 0.67 0 0.34 0 0 Z " fill="#373737" transform="translate(256,49)"/>
<path d="M0 0 C7.57142857 4 7.57142857 4 10 8 C6.45595664 8 5.89732095 7.39010515 3.3125 5.125 C2.68988281 4.59132813 2.06726563 4.05765625 1.42578125 3.5078125 C0 2 0 2 0 0 Z " fill="#141414" transform="translate(98,29)"/>
<path d="M0 0 C0.66 0 1.32 0 2 0 C2 0.66 2 1.32 2 2 C2.99 2.66 3.98 3.32 5 4 C4.67 4.99 4.34 5.98 4 7 C2.68 6.67 1.36 6.34 0 6 C0.99 6 1.98 6 3 6 C0.525 5.01 0.525 5.01 -2 4 C-1.34 2.68 -0.68 1.36 0 0 Z " fill="#393939" transform="translate(101,119)"/>
<path d="M0 0 C1.875 2 1.875 2 3 4 C1.68 4 0.36 4 -1 4 C-1 3.34 -1 2.68 -1 2 C-3.31 2.33 -5.62 2.66 -8 3 C-8 2.34 -8 1.68 -8 1 C-5.17116253 -0.41441874 -3.12623255 -0.31900332 0 0 Z " fill="#070707" transform="translate(195,85)"/>
<path d="M0 0 C0.33 0.66 0.66 1.32 1 2 C1.66 2 2.32 2 3 2 C1.95125002 4.62187494 1.35068687 5.79371361 -1.125 7.25 C-1.74375 7.4975 -2.3625 7.745 -3 8 C-3 4.42424104 -1.91159393 2.94704065 0 0 Z " fill="#8A8A8A" transform="translate(113,23)"/>
<path d="M0 0 C0.66 0 1.32 0 2 0 C4.125 4.625 4.125 4.625 3 8 C1.35 7.67 -0.3 7.34 -2 7 C-1.34 4.69 -0.68 2.38 0 0 Z " fill="#404040" transform="translate(72,8)"/>
<path d="M0 0 C0.66 0 1.32 0 2 0 C2.33 0.99 2.66 1.98 3 3 C3.66 2.01 4.32 1.02 5 0 C5 1.98 5 3.96 5 6 C4.01 6.495 4.01 6.495 3 7 C2.01 6.01 1.02 5.02 0 4 C-0.33 4.99 -0.66 5.98 -1 7 C-0.67 4.69 -0.34 2.38 0 0 Z " fill="#262626" transform="translate(78,9)"/>
<path d="M0 0 C2.0625 0.4375 2.0625 0.4375 4 1 C3.67 1.66 3.34 2.32 3 3 C3 3.66 3 4.32 3 5 C2.67 5.99 2.34 6.98 2 8 C0.68 7.67 -0.64 7.34 -2 7 C-1.67 6.34 -1.34 5.68 -1 5 C-0.34 5.33 0.32 5.66 1 6 C0.34 4.35 -0.32 2.7 -1 1 C-0.67 0.67 -0.34 0.34 0 0 Z " fill="#3E3E3E" transform="translate(51,124)"/>
<path d="M0 0 C0 0.99 0 1.98 0 3 C-2.97 2.67 -5.94 2.34 -9 2 C-8 0 -8 0 -6.1875 -0.6875 C-3.81180233 -1.02688538 -2.26664171 -0.72856341 0 0 Z " fill="#CFCFCF" transform="translate(277,52)"/>
<path d="M0 0 C1.43861294 0.08746284 2.87597508 0.19565348 4.3125 0.3125 C5.11300781 0.37050781 5.91351563 0.42851562 6.73828125 0.48828125 C9.36272334 1.08206694 10.30820672 1.95780294 12 4 C7.97007218 3.44687265 3.97977076 2.8441938 0 2 C0 1.34 0 0.68 0 0 Z " fill="#0B0B0B" transform="translate(78,22)"/>
<path d="M0 0 C0.28875 0.598125 0.5775 1.19625 0.875 1.8125 C2.04742026 4.19327792 2.04742026 4.19327792 4 7 C1.525 6.01 1.525 6.01 -1 5 C-0.67 5.99 -0.34 6.98 0 8 C-0.66 8 -1.32 8 -2 8 C-2.33 6.02 -2.66 4.04 -3 2 C-2.01 1.34 -1.02 0.68 0 0 Z " fill="#333333" transform="translate(53,11)"/>
<path d="M0 0 C1.98 0.495 1.98 0.495 4 1 C3.01 1.495 3.01 1.495 2 2 C2.99 2.33 3.98 2.66 5 3 C4.67 4.32 4.34 5.64 4 7 C2.68 6.67 1.36 6.34 0 6 C0.99 5.34 1.98 4.68 3 4 C1.68 3.67 0.36 3.34 -1 3 C-0.67 2.01 -0.34 1.02 0 0 Z " fill="#3C3C3C" transform="translate(57,10)"/>
<path d="M0 0 C0.66 0.33 1.32 0.66 2 1 C2.59355614 3.64860427 2.74209269 6.29197322 3 9 C2.34 9 1.68 9 1 9 C-0.32 6.36 -1.64 3.72 -3 1 C-2.01 0.67 -1.02 0.34 0 0 Z " fill="#DADADA" transform="translate(55,125)"/>
<path d="M0 0 C0 0.99 0 1.98 0 3 C-4.455 4.485 -4.455 4.485 -9 6 C-9 5.01 -9 4.02 -9 3 C-2.25 0 -2.25 0 0 0 Z " fill="#1F1F1F" transform="translate(95,114)"/>
<path d="M0 0 C2.17854707 3.2678206 3.49760034 6.38058265 5 10 C4.01 10 3.02 10 2 10 C-1.07692308 4.58461538 -1.07692308 4.58461538 -0.6875 1.625 C-0.460625 1.08875 -0.23375 0.5525 0 0 Z " fill="#1F1F1F" transform="translate(7,97)"/>
<path d="M0 0 C0.66 0 1.32 0 2 0 C1.43454163 3.95820859 0.19097652 6.6659053 -2 10 C-2.6875 8.375 -2.6875 8.375 -3 6 C-1.5625 2.75 -1.5625 2.75 0 0 Z " fill="#181818" transform="translate(100,84)"/>
<path d="M0 0 C2.31 0 4.62 0 7 0 C7.33 1.65 7.66 3.3 8 5 C7.34 4.67 6.68 4.34 6 4 C6 3.34 6 2.68 6 2 C4.68 2 3.36 2 2 2 C1.67 2.99 1.34 3.98 1 5 C0.67 3.35 0.34 1.7 0 0 Z " fill="#0E0E0E" transform="translate(53,63)"/>
<path d="M0 0 C-0.99 0.495 -0.99 0.495 -2 1 C-2 1.66 -2 2.32 -2 3 C-4.31 3.33 -6.62 3.66 -9 4 C-8.67 3.01 -8.34 2.02 -8 1 C-5.29120665 -0.35439668 -2.99066732 -0.06501451 0 0 Z " fill="#292929" transform="translate(342,49)"/>
<path d="M0 0 C2.31 0 4.62 0 7 0 C6.01 0.495 6.01 0.495 5 1 C4.67 1.66 4.34 2.32 4 3 C0.9375 3.625 0.9375 3.625 -2 4 C-1.34 2.68 -0.68 1.36 0 0 Z " fill="#1E1E1E" transform="translate(271,49)"/>
<path d="M0 0 C0.33 0.66 0.66 1.32 1 2 C-0.45463481 2.38909985 -1.91391207 2.76088029 -3.375 3.125 C-4.59316406 3.43824219 -4.59316406 3.43824219 -5.8359375 3.7578125 C-6.55007812 3.83773438 -7.26421875 3.91765625 -8 4 C-8.66 3.34 -9.32 2.68 -10 2 C-6.49223216 0.39644899 -3.85645121 -0.22036864 0 0 Z " fill="#272727" transform="translate(61,23)"/>
<path d="M0 0 C0.66 0 1.32 0 2 0 C2 2.31 2 4.62 2 7 C1.67 6.34 1.34 5.68 1 5 C-0.32 5.33 -1.64 5.66 -3 6 C-1.125 1.125 -1.125 1.125 0 0 Z " fill="#323232" transform="translate(87,11)"/>
<path d="M0 0 C0.66 0 1.32 0 2 0 C2.66 2.64 3.32 5.28 4 8 C2.35 7.67 0.7 7.34 -1 7 C-0.67 4.69 -0.34 2.38 0 0 Z " fill="#C8C8C8" transform="translate(48,122)"/>
<path d="M0 0 C2.64 0.33 5.28 0.66 8 1 C8 1.66 8 2.32 8 3 C4.535 4.485 4.535 4.485 1 6 C0.67 4.02 0.34 2.04 0 0 Z " fill="#BEBEBE" transform="translate(10,54)"/>
<path d="M0 0 C0.66 0 1.32 0 2 0 C4.09230769 4.43076923 4.09230769 4.43076923 3.625 7.3125 C3.41875 7.869375 3.2125 8.42625 3 9 C3 8.34 3 7.68 3 7 C2.34 7 1.68 7 1 7 C0.67 4.69 0.34 2.38 0 0 Z " fill="#2B2B2B" transform="translate(138,49)"/>
<path d="M0 0 C-0.33 0.99 -0.66 1.98 -1 3 C-3.5625 4.1875 -3.5625 4.1875 -6 5 C-6.33 4.01 -6.66 3.02 -7 2 C-4 0 -4 0 0 0 Z " fill="#838383" transform="translate(126,39)"/>
<path d="M0 0 C0.556875 0.226875 1.11375 0.45375 1.6875 0.6875 C-3.9375 4.6875 -3.9375 4.6875 -7.3125 4.6875 C-7.3125 4.0275 -7.3125 3.3675 -7.3125 2.6875 C-3.15982824 -0.42700382 -3.15982824 -0.42700382 0 0 Z " fill="#151515" transform="translate(51.3125,26.3125)"/>
<path d="M0 0 C0.99 0.33 1.98 0.66 3 1 C2.25 3.4375 2.25 3.4375 1 6 C-1.125 6.8125 -1.125 6.8125 -3 7 C-1.125 2.25 -1.125 2.25 0 0 Z " fill="#7A7A7A" transform="translate(42,119)"/>
<path d="M0 0 C2.31 0.33 4.62 0.66 7 1 C7 1.99 7 2.98 7 4 C4.36 3.67 1.72 3.34 -1 3 C-0.67 2.01 -0.34 1.02 0 0 Z " fill="#060606" transform="translate(296,85)"/>
<path d="M0 0 C0.33 0 0.66 0 1 0 C1.36923077 5.41538462 1.36923077 5.41538462 -0.5 8.375 C-0.995 8.91125 -1.49 9.4475 -2 10 C-2.33 8.35 -2.66 6.7 -3 5 C-2.34 5 -1.68 5 -1 5 C-0.67 3.35 -0.34 1.7 0 0 Z " fill="#121212" transform="translate(89,62)"/>
<path d="M0 0 C0 3.59857954 -0.95830515 5.09451118 -3 8 C-3.66 8 -4.32 8 -5 8 C-4.45773019 4.20411134 -2.79872437 2.52788007 0 0 Z " fill="#171717" transform="translate(34,39)"/>
<path d="M0 0 C0.99 0 1.98 0 3 0 C3.99 1.98 4.98 3.96 6 6 C5.34 6.66 4.68 7.32 4 8 C0 2.25 0 2.25 0 0 Z " fill="#252525" transform="translate(127,29)"/>
<path d="M0 0 C0.33 0.99 0.66 1.98 1 3 C-0.32 4.32 -1.64 5.64 -3 7 C-3.99 6.67 -4.98 6.34 -6 6 C-4.02 4.02 -2.04 2.04 0 0 Z " fill="#070707" transform="translate(23,19)"/>
<path d="M0 0 C-5.2734375 3.22265625 -5.2734375 3.22265625 -7 4 C-7.66 3.67 -8.32 3.34 -9 3 C-5.83583464 -0.30799106 -4.50236011 -1.35070803 0 0 Z " fill="#151515" transform="translate(46,7)"/>
<path d="M0 0 C5.75 1.875 5.75 1.875 8 3 C8 3.66 8 4.32 8 5 C4.62537285 4.45276317 2.91765 3.9451 0 2 C0 1.34 0 0.68 0 0 Z " fill="#131313" transform="translate(37,132)"/>
<path d="M0 0 C1.5 1.375 1.5 1.375 3 3 C3 3.66 3 4.32 3 5 C0.36 5 -2.28 5 -5 5 C-3.35 3.35 -1.7 1.7 0 0 Z " fill="#434343" transform="translate(128,44)"/>
<path d="M0 0 C0.99 0.33 1.98 0.66 3 1 C1.02 3.97 1.02 3.97 -1 7 C-1.66 6.67 -2.32 6.34 -3 6 C-1.125 1.125 -1.125 1.125 0 0 Z " fill="#202020" transform="translate(131,107)"/>
<path d="M0 0 C2.99324263 1.0975223 3.84610901 1.67682892 5.25 4.625 C5.4975 5.40875 5.745 6.1925 6 7 C5.01 7 4.02 7 3 7 C0 2.77777778 0 2.77777778 0 0 Z " fill="#242424" transform="translate(41,85)"/>
<path d="M0 0 C0.66 0.66 1.32 1.32 2 2 C1.625 5.125 1.625 5.125 1 8 C0.01 8 -0.98 8 -2 8 C-1.34 5.36 -0.68 2.72 0 0 Z " fill="#343434" transform="translate(118,83)"/>
<path d="M0 0 C-2.39509338 2.89932357 -4.31245243 3.50168276 -8 4 C-7 1 -7 1 -4.5625 -0.25 C-2 -1 -2 -1 0 0 Z " fill="#262626" transform="translate(70,38)"/>
<path d="M0 0 C2.0625 0.4375 2.0625 0.4375 4 1 C3.67 1.66 3.34 2.32 3 3 C3 3.66 3 4.32 3 5 C3 5.66 3 6.32 3 7 C2.34 7 1.68 7 1 7 C0.34 5.02 -0.32 3.04 -1 1 C-0.67 0.67 -0.34 0.34 0 0 Z " fill="#434343" transform="translate(95,13)"/>
</svg>
